:SAMPLES-PER-SECOND 30
:FULLY-SPECIFIED
:DEGREES
148
root  -15.64 34.1464 -0.44517 -142.346 -0.953201 179.047
RightUpLeg  -51.696 -6.91911 6.60794
RightLeg  7.80578 -0.0710048 -0.00398898
RightFoot  14.3925 0.0579265 0.0780963
RightToes  -19.8696 -0.0790803 -0.179509
Spine  8.65663 0.256071 1.49285
Spine1  17.2187 0.516486 3.17348
HEad  -5.78482 -10.0189 -6.12377
LeftShoulder1  -1.94126e-019 -3.10601e-018 -2.51263e-017
LeftArm  -13.1182 11.4185 -84.312
LeftForeArm  18.3753 -37.4349 -7.38169
LeftHand  -0.454411 -2.27584 7.08644
RightShoulder  -4.96962e-017 0 -2.36833e-017
RightArm  -22.8486 -10.1169 77.3714
RightForeArm  35.256 30.8081 4.65536
RightHand  -0.393637 -1.90089 -12.9207
LeftUpLeg  -53.3057 -5.58871 2.01247
LeftLeg  11.9829 10.3558 1.50072
LeftFoot  13.4966 -0.290749 2.61833
LeftToes  -19.0507 1.31424e-006 1.14295e-007
149
root  -15.661 34.2366 -0.848504 -144.526 -0.524734 179.294
RightUpLeg  -48.4315 -6.289 5.82398
RightLeg  7.11042 -0.683746 -0.0397895
RightFoot  14.2982 0.0750431 -0.0583577
RightToes  -20.1834 -0.0791791 -0.180065
Spine  7.48144 0.301401 1.28316
Spine1  14.9011 0.597848 2.90881
HEad  -6.67963 -9.87211 -6.19368
LeftShoulder1  -1.94126e-019 -3.10601e-018 -2.51263e-017
LeftArm  -13.1647 12.8814 -84.1024
LeftForeArm  19.6117 -37.5137 -7.34114
LeftHand  -0.465952 -2.11556 7.40455
RightShoulder  -4.96962e-017 0 -2.36833e-017
RightArm  -22.9488 -11.6033 77.6693
RightForeArm  36.2857 30.179 4.46915
RightHand  -0.405397 -1.74303 -12.7534
LeftUpLeg  -50.4551 -5.05723 1.55352
LeftLeg  12.1615 10.1979 1.51032
LeftFoot  12.6462 -0.251979 2.43525
LeftToes  -18.7415 1.31424e-006 1.14295e-007
150
root  -15.6867 34.3438 -1.35673 -147.311 -0.155396 179.392
RightUpLeg  -44.4682 -6.19093 5.22694
RightLeg  6.47298 -0.831798 -0.039383
RightFoot  13.9204 0.07581 -0.0805055
RightToes  -20.2734 -0.0791733 -0.180111
Spine  6.43436 0.300977 1.08323
Spine1  12.8292 0.593408 2.62082
HEad  -7.75703 -9.70813 -6.2901
LeftShoulder1  -1.94126e-019 -3.10601e-018 -2.51263e-017
LeftArm  -12.9376 14.3266 -83.7432
LeftForeArm  20.44 -37.3342 -7.24926
LeftHand  -0.478232 -2.10206 7.60721
RightShoulder  -4.96962e-017 0 -2.36833e-017
RightArm  -23.0617 -12.985 77.9008
RightForeArm  37.243 29.4831 4.27655
RightHand  -0.416177 -1.59047 -12.5873
LeftUpLeg  -46.7705 -4.76662 1.06727
LeftLeg  12.1859 10.193 1.514
LeftFoot  11.8165 -0.220275 2.28986
LeftToes  -18.5848 1.31424e-006 1.14295e-007
151
root  -15.7169 34.4555 -1.96061 -150.337 0.234253 179.384
RightUpLeg  -40.2139 -6.5098 4.78299
RightLeg  5.94917 -0.495035 -0.0184871
RightFoot  13.3339 0.0618333 0.0093897
RightToes  -20.3805 -0.0791166 -0.179784
Spine  5.41019 0.339838 0.898805
Spine1  10.7987 0.679191 2.33008
HEad  -9.28076 -9.62484 -6.28976
LeftShoulder1  -1.94126e-019 -3.10601e-018 -2.51263e-017
LeftArm  -13.3448 15.8463 -83.61
LeftForeArm  21.6905 -36.7157 -7.00768
LeftHand  -0.511099 -2.53447 7.7035
RightShoulder  -4.96962e-017 0 -2.36833e-017
RightArm  -23.0367 -14.7313 77.9399
RightForeArm  38.2005 29.0837 4.15013
RightHand  -0.422162 -1.52865 -12.5727
LeftUpLeg  -42.5909 -4.75359 0.657419
LeftLeg  12.0132 10.5106 1.52855
LeftFoot  10.9722 -0.196078 2.20286
LeftToes  -18.2423 1.31424e-006 1.14295e-007
152
root  -15.7352 34.5608 -2.59758 -153.366 0.632599 179.412
RightUpLeg  -35.9204 -6.54314 4.20372
RightLeg  5.5205 -0.414881 -0.0122423
RightFoot  12.6645 0.0555696 0.0369054
RightToes  -20.4974 -0.0790631 -0.179216
Spine  4.41162 0.350052 0.78165
Spine1  8.81285 0.70858 2.14759
HEad  -11.417 -9.45193 -6.21043
LeftShoulder1  -1.94126e-019 -3.10601e-018 -2.51263e-017
LeftArm  -12.7897 17.4239 -83.1474
LeftForeArm  21.76 -36.3855 -6.91919
LeftHand  -0.529267 -2.22912 8.26676
RightShoulder  -4.96962e-017 0 -2.36833e-017
RightArm  -22.8897 -16.4735 77.845
RightForeArm  39.0597 29.0573 4.11154
RightHand  -0.414234 -1.52624 -12.3261
LeftUpLeg  -38.3688 -4.53183 0.201446
LeftLeg  11.8765 10.6397 1.52138
LeftFoot  10.0126 -0.165397 2.04949
LeftToes  -17.8776 1.31424e-006 1.14295e-007
153
root  -15.7446 34.6545 -3.2801 -156.417 0.999329 179.428
RightUpLeg  -31.5559 -6.77682 3.7288
RightLeg  5.12196 -0.122396 -0.0020561
RightFoot  11.877 0.0448838 0.104271
RightToes  -20.693 -0.0790668 -0.178543
Spine  3.46559 0.388773 0.684007
Spine1  6.92671 0.79744 1.99014
HEad  -14.1059 -9.14745 -6.04776
LeftShoulder1  -1.94126e-019 -3.10601e-018 -2.51263e-017
LeftArm  -12.9119 19.1297 -82.8266
LeftForeArm  22.016 -36.1748 -6.85161
LeftHand  -0.501232 -1.97788 8.0886
RightShoulder  -4.96962e-017 0 -2.36833e-017
RightArm  -22.454 -18.301 77.6291
RightForeArm  39.7099 29.0966 4.09547
RightHand  -0.401948 -1.59673 -12.1703
LeftUpLeg  -33.9747 -4.27404 -0.240289
LeftLeg  11.5791 10.7385 1.47892
LeftFoot  8.98862 -0.134513 1.87273
LeftToes  -17.4816 1.31424e-006 1.14295e-007
154
root  -15.7405 34.7293 -3.94766 -159.21 1.38905 179.413
RightUpLeg  -27.521 -6.88679 3.2231
RightLeg  4.82726 0.131801 0.00361165
RightFoot  11.0292 0.0365203 0.155777
RightToes  -20.9375 -0.0791815 -0.177899
Spine  2.55868 0.412897 0.552003
Spine1  5.11356 0.857528 1.75485
HEad  -17.4355 -8.7239 -5.53904
LeftShoulder1  -1.94126e-019 -3.10601e-018 -2.51263e-017
LeftArm  -12.9018 20.7899 -82.2999
LeftForeArm  22.3429 -36.0469 -6.8024
LeftHand  -0.488707 -1.84928 8.02181
RightShoulder  -4.96962e-017 0 -2.36833e-017
RightArm  -22.0836 -19.8585 77.5177
RightForeArm  40.2354 28.9007 4.03251
RightHand  -0.412714 -1.42872 -11.9879
LeftUpLeg  -29.8207 -3.94594 -0.666186
LeftLeg  11.1912 10.8216 1.41618
LeftFoot  7.98921 -0.107012 1.69387
LeftToes  -17.0105 1.31424e-006 1.14295e-007
155
root  -15.7135 34.7822 -4.56723 -161.72 1.84546 179.439
RightUpLeg  -24.0393 -6.67776 2.75693
RightLeg  4.91769 0.174477 0.00474771
RightFoot  10.0881 0.0326906 0.163008
RightToes  -21.0066 -0.0794612 -0.177419
Spine  1.72177 0.462565 0.449528
Spine1  3.43955 0.967697 1.56823
HEad  -21.5137 -8.25177 -4.91134
LeftShoulder1  -1.94126e-019 -3.10601e-018 -2.51263e-017
LeftArm  -12.976 22.2643 -81.8024
LeftForeArm  22.7679 -35.8352 -6.72261
LeftHand  -0.474881 -1.68061 7.97321
RightShoulder  -4.96962e-017 0 -2.36833e-017
RightArm  -21.5185 -21.2893 77.3811
RightForeArm  40.8639 28.8871 4.0021
RightHand  -0.405896 -1.50471 -12.0099
LeftUpLeg  -26.1019 -3.59836 -0.953454
LeftLeg  10.943 10.9858 1.38939
LeftFoot  7.0006 -0.0833861 1.52472
LeftToes  -16.5093 1.31424e-006 1.14295e-007
